<?xml version="1.0" standalone="no"?><svg xmlns="http://www.w3.org/2000/svg" viewBox="0 0 1440 320"><path fill="#f7f7f7" fill-opacity="1" d="M0,288L17.1,288C34.3,288,69,288,103,266.7C137.1,245,171,203,206,186.7C240,171,274,181,309,197.3C342.9,213,377,235,411,245.3C445.7,256,480,256,514,240C548.6,224,583,192,617,197.3C651.4,203,686,245,720,229.3C754.3,213,789,139,823,138.7C857.1,139,891,213,926,245.3C960,277,994,267,1029,245.3C1062.9,224,1097,192,1131,197.3C1165.7,203,1200,245,1234,261.3C1268.6,277,1303,267,1337,250.7C1371.4,235,1406,213,1423,202.7L1440,192L1440,320L1422.9,320C1405.7,320,1371,320,1337,320C1302.9,320,1269,320,1234,320C1200,320,1166,320,1131,320C1097.1,320,1063,320,1029,320C994.3,320,960,320,926,320C891.4,320,857,320,823,320C788.6,320,754,320,720,320C685.7,320,651,320,617,320C582.9,320,549,320,514,320C480,320,446,320,411,320C377.1,320,343,320,309,320C274.3,320,240,320,206,320C171.4,320,137,320,103,320C68.6,320,34,320,17,320L0,320Z"></path></svg>