<?xml version="1.0" standalone="no"?><svg xmlns="http://www.w3.org/2000/svg" viewBox="0 0 1440 320"><path fill="#f3f4f5" fill-opacity="1" d="M0,224L26.7,213.3C53.3,203,107,181,160,186.7C213.3,192,267,224,320,250.7C373.3,277,427,299,480,293.3C533.3,288,587,256,640,256C693.3,256,747,288,800,277.3C853.3,267,907,213,960,213.3C1013.3,213,1067,267,1120,266.7C1173.3,267,1227,213,1280,192C1333.3,171,1387,181,1413,186.7L1440,192L1440,320L1413.3,320C1386.7,320,1333,320,1280,320C1226.7,320,1173,320,1120,320C1066.7,320,1013,320,960,320C906.7,320,853,320,800,320C746.7,320,693,320,640,320C586.7,320,533,320,480,320C426.7,320,373,320,320,320C266.7,320,213,320,160,320C106.7,320,53,320,27,320L0,320Z"></path></svg>